<?xml version="1.0" encoding="utf-8"?>
<!-- Generator: Adobe Illustrator 27.1.1, SVG Export Plug-In . SVG Version: 6.00 Build 0)  -->
<svg version="1.1" id="digital" xmlns="http://www.w3.org/2000/svg" xmlns:xlink="http://www.w3.org/1999/xlink" x="0px" y="0px"
	 viewBox="0 0 274.63 288" style="enable-background:new 0 0 274.63 288;" xml:space="preserve">
<style type="text/css">
	.st0{fill:#FFFFFF;}
</style>
<g>
	<path class="st0" d="M17.74,56.82h1.96c4.09,0,4.99-1.55,4.99-5.81V38.1L8.99,9.97C5.8,4.25,4.74,3.52,0.73,3.52H0V1.06
		c3.51,0.08,6.94,0.25,10.29,0.25c3.43,0,6.95-0.16,10.38-0.25v2.46h-1.47c-1.72,0-3.03,0.58-3.03,2.61c0,1.15,0.99,3.36,1.8,4.83
		l12.1,21.83L41.36,11.2c0.66-1.23,2.21-4.33,2.21-5.8c0-1.39-0.98-1.88-3.18-1.88h-1.56V1.06c3.35,0.08,5.56,0.25,8.1,0.25
		c2.7,0,5.48-0.16,8.1-0.25v2.46h-2.04c-3.35,0-4.09,1.06-6.63,5.8L31.88,36.38v14.64c0,4.83,1.8,5.81,4.99,5.81h1.64v2.46
		c-3.43-0.08-6.95-0.25-10.38-0.25c-3.6,0-7.36,0.16-10.38,0.25V56.82z"/>
	<path class="st0" d="M98.36,0c16.27,0,30.5,13.16,30.5,30.17c0,14.39-11.12,30.17-30.74,30.17c-17.66,0-30.42-13.33-30.42-29.52
		C67.69,12.59,82.24,0,98.36,0z M98.11,3.44c-11.45,0-22.25,7.03-22.25,26c0,13.24,8.67,27.8,22.74,27.8
		c15.13,0,22.08-11.12,22.08-26.16C120.68,17.91,112.42,3.44,98.11,3.44z"/>
	<path class="st0" d="M148.31,56.82h1.47c3.77,0,5.4-1.4,5.4-6.71v-39.9c0-5.31-1.64-6.7-5.4-6.7h-1.47V1.06
		c2.86,0.08,6.78,0.25,10.47,0.25c5.47,0,9.4-0.25,13-0.25c14.48,0,17.09,11.36,17.09,15.13c0,10.71-7.52,13.98-11.61,15.29
		l10.96,18.15c4.5,7.36,5.8,7.85,12.42,8.26v1.72c-1.56,0-3.03,0.08-4.58,0.08c-7.2,0-10.55-0.9-14.88-8.01l-9.57-15.62
		c-1.87-3.02-2.94-3.18-9.24-3.35v15.46c0,7.76,1.39,8.66,4.66,8.66h2.37v2.46c-3.59-0.08-7.03-0.25-10.62-0.25
		c-3.69,0-7.61,0.16-10.47,0.25V56.82z M162.37,29.02c1.39,0.49,3.44,0.58,5.56,0.58c7.37,0,13.41-3.35,13.41-11.86
		c0-3.59-2.46-13.57-13.81-13.57c-1.96,0-3.52,0.16-5.16,0.33V29.02z"/>
	<path class="st0" d="M218.38,56.82h1.48c3.76,0,5.39-1.4,5.39-6.71v-39.9c0-5.31-1.64-6.7-5.39-6.7h-1.48V1.06
		c2.87,0.08,6.79,0.25,10.47,0.25c3.59,0,7.03-0.16,10.63-0.25v2.46h-2.38c-3.27,0-4.66,0.9-4.66,8.67V31.4l17.91-19.95
		c0.82-0.9,3.92-4.17,3.92-5.81c0-1.47-1.13-2.12-2.69-2.12h-1.47V1.06c3.03,0.08,6.46,0.25,9.64,0.25c3.27,0,6.46-0.16,9.73-0.25
		v2.46H268c-4,0-5.39,0.73-10.22,5.8l-15.78,16.6l21.09,24.69c4.58,5.4,6.95,6.22,10.3,6.22h1.22v2.46
		c-2.61-0.08-5.32-0.25-7.93-0.25s-5.31,0.16-7.93,0.25c-0.41-2.38-0.66-3.6-5.32-8.92l-16.76-19.21l-4.26,4.5v12.51
		c0,7.76,1.39,8.66,4.66,8.66h2.38v2.46c-3.6-0.08-7.04-0.25-10.63-0.25c-3.68,0-7.6,0.16-10.47,0.25V56.82z"/>
</g>
<g>
	<path class="st0" d="M178.19,262.56c-35.68,0-66.58-22.06-66.58-70.28V77.63H31.89V288h210.37v-76.75
		C235.92,241.84,213.69,262.56,178.19,262.56z"/>
	<path class="st0" d="M178.19,219.49c19.15,0,25.03-16.82,25.03-33.27V77.63h-48.96v108.59
		C154.26,203.35,160.35,219.49,178.19,219.49z"/>
</g>
</svg>
